<svg xmlns="http://www.w3.org/2000/svg" viewBox="0 0 359.4 579.89"><g id="Layer_2" data-name="Layer 2"><g id="Layer_1-2" data-name="Layer 1"><path d="M131.21.34a145.54,145.54,0,0,1,36.94,14.22c34.07,18.77,59.42,46,76.77,80.6a184,184,0,0,1,19.69,83.12c.08,34.15-5.91,67-19.84,98.27-10.67,24-25.31,45.4-42.27,65.33-10.46,12.3-21.83,23.77-33,35.39-16.11,16.69-33.19,32.47-47.58,50.78-12,15.24-22,31.5-26.38,50.63a98.26,98.26,0,0,0,1.08,48.89c.7,2.5.48,3-2.18,2.45C75,526.2,59.74,515.63,47.27,500.8c-18.69-22.25-28.07-48.2-29.44-77.05-2-42.37,8.47-81.67,29.51-118.35,12.56-21.88,27.7-42,42.26-62.53,15-21.16,29.19-42.82,39.3-66.85a230.11,230.11,0,0,0,16.65-67.53c3.44-35.34-3.37-69.32-12.83-103C132.29,4,131.83,2.45,131.21.34Z" style="fill:none;stroke:#848484;stroke-miterlimit:10;stroke-width:0.5px"/><path d="M184.68,579.58a61.17,61.17,0,0,1-20.11-12.13c-16.07-14.31-26.16-32-28.56-53.52-2.28-20.34,3.37-39,13.94-56.27,7.73-12.65,17.28-23.88,27.62-34.44,14.94-15.29,30.2-30.27,44.93-45.76,21.86-23,41-48,55.3-76.51a280.25,280.25,0,0,0,26-81.8c.39-2.45.76-4.9,1.16-7.34a6.06,6.06,0,0,1,.54-1,78.52,78.52,0,0,1,11.76,11.11c24.7,27.21,38.46,59.38,41.3,95.79,3.75,48.13-9.93,90.86-42.48,127.06-15.1,16.79-32.71,30.65-51.16,43.53-18,12.56-37,23.62-54.5,36.91-7.82,5.94-15.2,12.34-20.9,20.48-6.23,8.9-7.49,18.66-5.48,29.07.28,1.45.65,2.88,1,4.32C185,579.13,184.88,579.25,184.68,579.58Z" style="fill:none;stroke:#848484;stroke-miterlimit:10;stroke-width:0.5px"/><path d="M44,50.14c3.86-.54,7.54.7,11.18,1.7,32.68,8.94,54.66,43.07,50.31,76.69-2.94,22.75-12.06,42.82-24.51,61.59-10.27,15.5-21.26,30.54-31.6,46-7.06,10.55-13.25,21.59-13.94,34.76-.1,2-.83,2.33-2.53,1.17C14.37,259.4,3,242.32.65,219.74-1.67,197,6.3,177.17,18.36,158.52c7.61-11.77,16.15-23,22.65-35.43,12-23,15.09-46.5,3.4-70.67A2.81,2.81,0,0,1,44,50.14Z" style="fill:none;stroke:#848484;stroke-miterlimit:10;stroke-width:0.5px"/></g></g></svg>