<svg xmlns="http://www.w3.org/2000/svg" viewBox="0 0 450 300"><g id="Layer_2" data-name="Layer 2"><g id="_ÎÓÈ_1" data-name="—ÎÓÈ_1"><rect width="450" height="300" style="fill:#3f9c35"/><rect width="450" height="200" style="fill:#ed2939"/><rect width="450" height="100" style="fill:#00b9e4"/><path d="M225,187.5A37.5,37.5,0,1,1,251,123,45,45,0,1,0,251,177,37.34,37.34,0,0,1,225,187.5Z" style="fill:#fff"/><path d="M265,125l4.78,13.45,12.9-6.13-6.13,12.9L290,150l-13.45,4.78,6.13,12.9-12.9-6.13L265,175l-4.78-13.45-12.9,6.13,6.13-12.9L240,150l13.45-4.78-6.13-12.9,12.9,6.13Z" style="fill:#fff"/></g></g></svg>