<svg xmlns="http://www.w3.org/2000/svg" viewBox="0 0 450 373.9"><g id="Layer_2" data-name="Layer 2"><g id="_ÎÓÈ_1" data-name="—ÎÓÈ_1"><polygon points="0 200 0 268.77 103.16 200 0 200" style="fill:#00247d"/><polygon points="403.16 0 275 0 275 85.44 403.16 0" style="fill:#00247d"/><polygon points="46.84 300 175 300 175 214.56 46.84 300" style="fill:#00247d"/><polygon points="0 31.23 0 100 103.16 100 0 31.23" style="fill:#00247d"/><polygon points="175 0 46.84 0 175 85.44 175 0" style="fill:#00247d"/><polygon points="450 268.77 450 200 346.84 200 450 268.77" style="fill:#00247d"/><polygon points="450 100 450 31.23 346.84 100 450 100" style="fill:#00247d"/><polygon points="275 300 403.16 300 275 214.56 275 300" style="fill:#00247d"/><polygon points="175 100 175 85.44 46.84 0 0 0 150 100 175 100" style="fill:#fff"/><polygon points="118.78 100 0 20.82 0 31.23 103.16 100 118.78 100" style="fill:#fff"/><polygon points="275 200 275 214.56 403.16 300 450 300 300 200 275 200" style="fill:#fff"/><polygon points="175 204.15 31.22 300 46.84 300 175 214.56 175 204.15" style="fill:#fff"/><polygon points="103.16 200 0 268.77 0 300 150 200 103.16 200" style="fill:#fff"/><polygon points="331.22 200 450 279.18 450 268.77 346.84 200 331.22 200" style="fill:#fff"/><polygon points="346.84 100 450 31.23 450 0 300 100 346.84 100" style="fill:#fff"/><polygon points="275 95.85 418.78 0 403.16 0 275 85.44 275 95.85" style="fill:#fff"/><polygon points="150 100 0 0 0 20.82 118.78 100 150 100" style="fill:#cf142b"/><polygon points="331.22 200 300 200 450 300 450 279.18 331.22 200" style="fill:#cf142b"/><polygon points="175 200 150 200 0 300 31.22 300 175 204.15 175 200" style="fill:#cf142b"/><polygon points="275 100 300 100 450 0 418.78 0 275 95.85 275 100" style="fill:#cf142b"/><polygon points="255 120 450 120 450 100 346.84 100 300 100 275 100 275 95.85 275 85.44 275 0 255 0 255 120" style="fill:#fff"/><polygon points="275 200 300 200 331.22 200 346.84 200 450 200 450 180 255 180 255 300 275 300 275 214.56 275 200" style="fill:#fff"/><polygon points="195 180 0 180 0 200 103.16 200 150 200 175 200 175 204.15 175 214.56 175 300 195 300 195 180" style="fill:#fff"/><polygon points="195 120 195 0 175 0 175 85.44 175 100 150 100 118.78 100 103.16 100 0 100 0 120 195 120" style="fill:#fff"/><polygon points="255 180 450 180 450 150 450 120 255 120 255 0 225 0 195 0 195 120 0 120 0 150 0 180 195 180 195 300 225 300 255 300 255 180" style="fill:#cf142b"/><path d="M77.31,334.17v18c0,6.79,3,9.67,7.07,9.67,4.5,0,7.38-3,7.38-9.67v-18h4v17.69c0,9.31-4.91,13.14-11.48,13.14-6.21,0-10.89-3.56-10.89-13V334.17Z"/><path d="M102.38,348.62c0-2.25,0-4.1-.18-5.9h3.51l.22,3.6H106a8,8,0,0,1,7.2-4.09c3,0,7.7,1.8,7.7,9.27v13h-4V352c0-3.51-1.31-6.44-5-6.44a5.63,5.63,0,0,0-5.31,4.05,5.73,5.73,0,0,0-.27,1.85V364.5h-4Z"/><path d="M131.76,336.6a2.45,2.45,0,0,1-4.9,0,2.41,2.41,0,0,1,2.47-2.47A2.35,2.35,0,0,1,131.76,336.6Zm-4.41,27.9V342.72h4V364.5Z"/><path d="M142.65,336.47v6.25h5.67v3h-5.67v11.74c0,2.7.77,4.23,3,4.23a8.64,8.64,0,0,0,2.3-.27l.18,3a9.83,9.83,0,0,1-3.51.54,5.5,5.5,0,0,1-4.28-1.66c-1.12-1.17-1.53-3.11-1.53-5.67V345.74h-3.37v-3h3.37V337.5Z"/><path d="M154.71,354.33c.09,5.36,3.51,7.56,7.47,7.56a14.3,14.3,0,0,0,6-1.12l.68,2.83a17.67,17.67,0,0,1-7.25,1.35c-6.7,0-10.71-4.41-10.71-11s3.87-11.74,10.22-11.74c7.11,0,9,6.25,9,10.26a13.66,13.66,0,0,1-.14,1.84Zm11.61-2.83c.05-2.52-1-6.44-5.49-6.44-4,0-5.76,3.69-6.07,6.44Z"/><path d="M193.86,332.55v26.33c0,1.93,0,4.13.18,5.62h-3.55l-.19-3.78h-.09a8.05,8.05,0,0,1-7.42,4.28c-5.26,0-9.31-4.46-9.31-11.07,0-7.25,4.45-11.7,9.76-11.7,3.33,0,5.58,1.57,6.57,3.33h.09v-13Zm-4,19a7.3,7.3,0,0,0-.18-1.67,5.83,5.83,0,0,0-5.72-4.59c-4.09,0-6.52,3.6-6.52,8.42,0,4.41,2.16,8.05,6.43,8.05a6,6,0,0,0,5.81-4.72,7.12,7.12,0,0,0,.18-1.71Z"/><path d="M210.11,334.17H214V348.8h.14c.8-1.17,1.62-2.25,2.38-3.24l9.27-11.39h4.86l-11,12.87,11.83,17.46h-4.63l-10-14.89L214,352.94V364.5h-3.91Z"/><path d="M239.22,336.6a2.46,2.46,0,0,1-4.91,0,2.42,2.42,0,0,1,2.48-2.47A2.35,2.35,0,0,1,239.22,336.6Zm-4.41,27.9V342.72h4V364.5Z"/><path d="M245.34,348.62c0-2.25-.05-4.1-.18-5.9h3.51l.22,3.6H249a8,8,0,0,1,7.2-4.09c3,0,7.7,1.8,7.7,9.27v13h-4V352c0-3.51-1.31-6.44-5-6.44a5.63,5.63,0,0,0-5.31,4.05,5.73,5.73,0,0,0-.27,1.85V364.5h-4Z"/><path d="M289.08,342.72c-.09,1.58-.18,3.33-.18,6v12.64c0,5-1,8.06-3.11,9.94s-5.17,2.61-7.92,2.61a14,14,0,0,1-7.24-1.8l1-3A12.28,12.28,0,0,0,278,370.8c4.05,0,7-2.12,7-7.6v-2.43h-.09a7.79,7.79,0,0,1-6.93,3.64c-5.4,0-9.27-4.59-9.27-10.62,0-7.38,4.81-11.56,9.81-11.56a7.23,7.23,0,0,1,6.79,3.78h.09l.18-3.29Zm-4.1,8.6a5.63,5.63,0,0,0-.22-1.8,5.71,5.71,0,0,0-5.54-4.19c-3.78,0-6.48,3.2-6.48,8.24,0,4.27,2.16,7.83,6.44,7.83a5.79,5.79,0,0,0,5.49-4,7.07,7.07,0,0,0,.31-2.12Z"/><path d="M314.28,332.55v26.33c0,1.93,0,4.13.18,5.62H310.9l-.18-3.78h-.09a8.05,8.05,0,0,1-7.42,4.28c-5.27,0-9.32-4.46-9.32-11.07,0-7.25,4.46-11.7,9.77-11.7,3.33,0,5.58,1.57,6.57,3.33h.09v-13Zm-4,19a7.3,7.3,0,0,0-.18-1.67,5.83,5.83,0,0,0-5.72-4.59c-4.09,0-6.52,3.6-6.52,8.42,0,4.41,2.16,8.05,6.43,8.05a6,6,0,0,0,5.81-4.72,7.12,7.12,0,0,0,.18-1.71Z"/><path d="M340.56,353.43c0,8.06-5.58,11.57-10.85,11.57-5.89,0-10.44-4.33-10.44-11.21,0-7.29,4.77-11.56,10.8-11.56C336.33,342.23,340.56,346.77,340.56,353.43Zm-17.28.23c0,4.76,2.74,8.37,6.61,8.37s6.62-3.56,6.62-8.46c0-3.69-1.85-8.37-6.53-8.37S323.28,349.52,323.28,353.66Z"/><path d="M345.55,348.62c0-2.25,0-4.1-.18-5.9h3.47l.18,3.51h.13a7.51,7.51,0,0,1,6.84-4,6.45,6.45,0,0,1,6.17,4.36h.09a8.89,8.89,0,0,1,2.43-2.83,7.41,7.41,0,0,1,4.81-1.53c2.88,0,7.16,1.89,7.16,9.45V364.5h-3.87V352.17c0-4.18-1.53-6.7-4.73-6.7a5.13,5.13,0,0,0-4.68,3.6,6.53,6.53,0,0,0-.31,2V364.5h-3.87V351.45c0-3.46-1.53-6-4.55-6a5.41,5.41,0,0,0-4.9,4,5.32,5.32,0,0,0-.32,1.93V364.5h-3.87Z"/></g></g></svg>